<mxfile host="65bd71144e">
    <diagram id="C9LQhjds5NzoQNA5PKzk" name="Page-1">
        <mxGraphModel dx="1049" dy="977" grid="1" gridSize="10" guides="1" tooltips="1" connect="1" arrows="1" fold="1" page="1" pageScale="1" pageWidth="1169" pageHeight="827" background="#ffffff" math="0" shadow="0">
            <root>
                <mxCell id="0"/>
                <mxCell id="1" parent="0"/>
                <mxCell id="5" value="Azure Container apps" style="swimlane;whiteSpace=wrap;html=1;fillStyle=solid;fillColor=#0050ef;fontColor=#ffffff;strokeColor=#001DBC;strokeWidth=4;" vertex="1" parent="1">
                    <mxGeometry x="280" y="120" width="200" height="280" as="geometry"/>
                </mxCell>
                <mxCell id="6" value="Slack app&lt;br&gt;(backend)" style="rounded=1;whiteSpace=wrap;html=1;fillColor=#008a00;fontColor=#ffffff;strokeColor=#005700;" vertex="1" parent="5">
                    <mxGeometry x="40" y="120" width="120" height="60" as="geometry"/>
                </mxCell>
                <mxCell id="7" value="Slack.com (US cloud)" style="swimlane;whiteSpace=wrap;html=1;fillColor=#1ba1e2;fontColor=#ffffff;strokeColor=#006EAF;strokeWidth=4;" vertex="1" parent="1">
                    <mxGeometry x="40" y="120" width="200" height="280" as="geometry"/>
                </mxCell>
                <mxCell id="8" value="Slack.com" style="rounded=1;whiteSpace=wrap;html=1;fillColor=#1ba1e2;fontColor=#ffffff;strokeColor=#006EAF;" vertex="1" parent="7">
                    <mxGeometry x="40" y="120" width="120" height="60" as="geometry"/>
                </mxCell>
                <mxCell id="9" value="Cloud APIs" style="swimlane;whiteSpace=wrap;html=1;fillStyle=solid;startSize=23;fillColor=#6a00ff;fontColor=#ffffff;strokeColor=#3700CC;strokeWidth=4;" vertex="1" parent="1">
                    <mxGeometry x="520" y="120" width="280" height="280" as="geometry"/>
                </mxCell>
                <mxCell id="10" value="OpenAI" style="rounded=1;whiteSpace=wrap;html=1;fillColor=#1ba1e2;fontColor=#ffffff;strokeColor=#006EAF;" vertex="1" parent="9">
                    <mxGeometry x="40" y="50" width="120" height="60" as="geometry"/>
                </mxCell>
                <mxCell id="11" value="Typesense Cloud" style="rounded=1;whiteSpace=wrap;html=1;fillColor=#1ba1e2;fontColor=#ffffff;strokeColor=#006EAF;" vertex="1" parent="9">
                    <mxGeometry x="40" y="160" width="120" height="60" as="geometry"/>
                </mxCell>
                <mxCell id="12" value="GPU VM Hosting" style="swimlane;whiteSpace=wrap;html=1;fillStyle=solid;strokeWidth=4;fillColor=#6a00ff;fontColor=#ffffff;strokeColor=#3700CC;" vertex="1" parent="1">
                    <mxGeometry x="520" y="430" width="280" height="200" as="geometry"/>
                </mxCell>
                <mxCell id="13" value="Assistant &lt;br&gt;GPU-accelerated services" style="rounded=1;whiteSpace=wrap;html=1;fillColor=#008a00;fontColor=#ffffff;strokeColor=#005700;" vertex="1" parent="12">
                    <mxGeometry x="65" y="70" width="120" height="60" as="geometry"/>
                </mxCell>
                <mxCell id="14" value="" style="endArrow=classic;startArrow=classic;html=1;" edge="1" parent="1">
                    <mxGeometry width="50" height="50" relative="1" as="geometry">
                        <mxPoint x="390" y="530" as="sourcePoint"/>
                        <mxPoint x="440" y="480" as="targetPoint"/>
                    </mxGeometry>
                </mxCell>
                <mxCell id="15" style="edgeStyle=none;html=1;exitX=1;exitY=0.5;exitDx=0;exitDy=0;entryX=0;entryY=0.5;entryDx=0;entryDy=0;strokeWidth=4;fillColor=#b1ddf0;strokeColor=#10739e;endArrow=block;endFill=1;startArrow=block;startFill=1;endSize=1;startSize=1;" edge="1" parent="1" source="8" target="6">
                    <mxGeometry relative="1" as="geometry"/>
                </mxCell>
                <mxCell id="16" style="edgeStyle=none;html=1;strokeWidth=4;fillColor=#b1ddf0;strokeColor=#10739e;endArrow=block;endFill=1;startArrow=block;startFill=1;entryX=0;entryY=0.5;entryDx=0;entryDy=0;exitX=1;exitY=0.25;exitDx=0;exitDy=0;endSize=1;startSize=1;" edge="1" parent="1" source="6" target="10">
                    <mxGeometry relative="1" as="geometry">
                        <mxPoint x="470" y="240" as="sourcePoint"/>
                        <mxPoint x="550" y="230" as="targetPoint"/>
                    </mxGeometry>
                </mxCell>
                <mxCell id="17" style="edgeStyle=none;html=1;exitX=0.992;exitY=0.65;exitDx=0;exitDy=0;entryX=0;entryY=0.5;entryDx=0;entryDy=0;strokeWidth=4;fillColor=#b1ddf0;strokeColor=#10739e;endArrow=block;endFill=1;startArrow=block;startFill=1;endSize=1;startSize=1;exitPerimeter=0;" edge="1" parent="1" source="6" target="11">
                    <mxGeometry relative="1" as="geometry">
                        <mxPoint x="390" y="310" as="sourcePoint"/>
                        <mxPoint x="510" y="310" as="targetPoint"/>
                    </mxGeometry>
                </mxCell>
                <mxCell id="18" style="edgeStyle=none;html=1;exitX=0;exitY=0;exitDx=0;exitDy=0;entryX=1;entryY=1;entryDx=0;entryDy=0;strokeWidth=4;fillColor=#b1ddf0;strokeColor=#10739e;endArrow=block;endFill=1;startArrow=block;startFill=1;endSize=1;startSize=1;" edge="1" parent="1" source="13" target="6">
                    <mxGeometry relative="1" as="geometry">
                        <mxPoint x="230" y="260" as="sourcePoint"/>
                        <mxPoint x="350" y="260" as="targetPoint"/>
                    </mxGeometry>
                </mxCell>
            </root>
        </mxGraphModel>
    </diagram>
</mxfile>